<mxfile host="app.diagrams.net" modified="2023-02-16T15:56:05.294Z" agent="5.0 (Windows)" etag="eZmLb-z8cK3juLRWbRbK" version="20.8.20" type="github">
  <diagram id="C5RBs43oDa-KdzZeNtuy" name="Page-1">
    <mxGraphModel dx="1304" dy="711" grid="1" gridSize="10" guides="1" tooltips="1" connect="1" arrows="1" fold="1" page="1" pageScale="1" pageWidth="827" pageHeight="1169" math="0" shadow="0">
      <root>
        <mxCell id="WIyWlLk6GJQsqaUBKTNV-0" />
        <mxCell id="WIyWlLk6GJQsqaUBKTNV-1" parent="WIyWlLk6GJQsqaUBKTNV-0" />
        <mxCell id="C1PNHRlIpms5rlvcldwW-0" value="START" style="ellipse;whiteSpace=wrap;html=1;" vertex="1" parent="WIyWlLk6GJQsqaUBKTNV-1">
          <mxGeometry x="293" y="50" width="120" height="80" as="geometry" />
        </mxCell>
        <mxCell id="C1PNHRlIpms5rlvcldwW-7" value="" style="endArrow=classic;html=1;rounded=0;movable=1;resizable=1;rotatable=1;deletable=1;editable=1;locked=0;connectable=1;" edge="1" parent="WIyWlLk6GJQsqaUBKTNV-1">
          <mxGeometry width="50" height="50" relative="1" as="geometry">
            <mxPoint x="352.55" y="210" as="sourcePoint" />
            <mxPoint x="352.55" y="280" as="targetPoint" />
          </mxGeometry>
        </mxCell>
        <mxCell id="C1PNHRlIpms5rlvcldwW-1" value="pobierz&amp;nbsp; wartosc a ustaw b=2" style="rounded=0;whiteSpace=wrap;html=1;" vertex="1" parent="WIyWlLk6GJQsqaUBKTNV-1">
          <mxGeometry x="293" y="170" width="120" height="60" as="geometry" />
        </mxCell>
        <mxCell id="C1PNHRlIpms5rlvcldwW-2" value="STOP" style="ellipse;whiteSpace=wrap;html=1;" vertex="1" parent="WIyWlLk6GJQsqaUBKTNV-1">
          <mxGeometry x="293" y="370" width="120" height="80" as="geometry" />
        </mxCell>
        <mxCell id="C1PNHRlIpms5rlvcldwW-11" value="" style="endArrow=classic;html=1;rounded=0;" edge="1" parent="WIyWlLk6GJQsqaUBKTNV-1" source="C1PNHRlIpms5rlvcldwW-0" target="C1PNHRlIpms5rlvcldwW-1">
          <mxGeometry width="50" height="50" relative="1" as="geometry">
            <mxPoint x="330" y="150" as="sourcePoint" />
            <mxPoint x="380" y="100" as="targetPoint" />
          </mxGeometry>
        </mxCell>
        <mxCell id="C1PNHRlIpms5rlvcldwW-12" value="wyswietl a+b" style="rounded=0;whiteSpace=wrap;html=1;" vertex="1" parent="WIyWlLk6GJQsqaUBKTNV-1">
          <mxGeometry x="293" y="270" width="120" height="60" as="geometry" />
        </mxCell>
        <mxCell id="C1PNHRlIpms5rlvcldwW-13" value="" style="endArrow=classic;html=1;rounded=0;exitX=0.5;exitY=1;exitDx=0;exitDy=0;entryX=0.5;entryY=0;entryDx=0;entryDy=0;" edge="1" parent="WIyWlLk6GJQsqaUBKTNV-1" source="C1PNHRlIpms5rlvcldwW-12" target="C1PNHRlIpms5rlvcldwW-2">
          <mxGeometry width="50" height="50" relative="1" as="geometry">
            <mxPoint x="350" y="390" as="sourcePoint" />
            <mxPoint x="350" y="390" as="targetPoint" />
          </mxGeometry>
        </mxCell>
      </root>
    </mxGraphModel>
  </diagram>
</mxfile>
